<?xml version="1.0" encoding="utf-8"?>
<!-- Generator: Adobe Illustrator 19.2.0, SVG Export Plug-In . SVG Version: 6.00 Build 0)  -->
<svg version="1.1" xmlns="http://www.w3.org/2000/svg" xmlns:xlink="http://www.w3.org/1999/xlink" x="0px" y="0px"
	 viewBox="0 0 122 122" style="enable-background:new 0 0 122 122;" xml:space="preserve">
<style type="text/css">
	.st0{fill:none;stroke:#2F3441;stroke-width:2;stroke-miterlimit:10;}
	.st1{fill:#303440;}
</style>
<g id="Слой_2">
	<circle class="st0" cx="61" cy="61" r="60"/>
</g>
<g id="Слой_3">
	<g>
		<path class="st1" d="M60.9,63.7c-15.5,0-28.2,12.6-28.2,28.2c0,0.6,0.5,1,1,1c0.6,0,1-0.5,1-1c0-14.4,11.7-26.1,26.1-26.1
			C75.3,65.8,87,77.5,87,91.9c0,0.6,0.5,1,1,1c0.6,0,1-0.5,1-1C89.1,76.4,76.4,63.7,60.9,63.7z"/>
		<path class="st1" d="M60.8,52.4c1.3,0,2.4-0.7,3.1-1.8c0.2-0.4,0.1-0.9-0.3-1.2c-0.4-0.2-0.9-0.1-1.2,0.3
			c-0.3,0.6-0.9,0.9-1.6,0.9c-0.6,0-1.2-0.3-1.6-0.9c-0.2-0.4-0.8-0.6-1.2-0.3c-0.4,0.2-0.6,0.8-0.3,1.2
			C58.3,51.7,59.5,52.4,60.8,52.4z"/>
		<path class="st1" d="M45.2,48.9H47c0.5,0,0.9-0.4,0.9-0.9v-3.5c0-7.1,5.7-12.9,12.8-12.9h0.1c0,0,0,0,0,0c0,0,0,0,0,0c0,0,0,0,0,0
			c0.9,0,1.7,0.1,2.5,0.3c-2.4,2.7-5.8,4.2-9.5,4.2c-0.2,0-0.5,0-0.7,0c-0.5,0-0.9,0.3-0.9,0.8c0,0.5,0.3,0.9,0.8,0.9
			c0.3,0,0.5,0,0.8,0c2.3,0,4.6-0.6,6.7-1.6c1.8-0.9,3.4-2.2,4.7-3.8c4.9,1.8,8.4,6.5,8.4,12.1c0,5.7-3.7,10.6-9,12.3
			c-0.5-0.8-1.4-1.4-2.4-1.4h-2.8c-1.5,0-2.8,1.3-2.8,2.8c0,1.5,1.3,2.8,2.8,2.8h2.8c1.5,0,2.7-1.1,2.8-2.5c2.8-0.9,5.4-2.6,7.2-4.9
			c1.1-1.4,2-3,2.5-4.7h1.6c1.5,0,2.6-1.2,2.6-2.7v-4c0-1.2-0.7-2.2-1.8-2.6c-0.5-0.1-0.9,0.1-1.1,0.6c-0.1,0.5,0.1,0.9,0.5,1.1
			c0.4,0.1,0.6,0.5,0.6,0.9v4c0,0.5-0.4,1-0.9,1h-1.2c0.2-0.9,0.2-1.8,0.2-2.7c0-6.5-4.3-12-10.1-13.9c0,0,0,0-0.1,0
			c-1.3-0.4-2.6-0.6-3.9-0.7h0c0,0,0,0,0,0c0,0,0,0,0,0c0,0,0,0,0,0c0,0,0,0,0,0c0,0,0,0,0,0c0,0,0,0,0,0c0,0,0,0,0,0c0,0,0,0,0,0
			c0,0,0,0,0,0c0,0,0,0,0,0c0,0,0,0,0,0c0,0,0,0,0,0c0,0,0,0,0,0c0,0,0,0,0,0c0,0,0,0,0,0c0,0,0,0,0,0c0,0,0,0,0,0c0,0,0,0,0,0
			c0,0,0,0,0,0c0,0,0,0,0,0c0,0,0,0,0,0c0,0,0,0,0,0c0,0,0,0,0,0h0c0,0,0,0,0,0h-0.2c-8,0-14.6,6.6-14.6,14.6v2.7h-1
			c-0.5,0-1-0.5-1-1v-4c0-0.4,0.3-0.8,0.7-0.9c0.5-0.1,0.7-0.6,0.6-1.1c-0.1-0.5-0.6-0.7-1.1-0.6c-1.1,0.4-1.9,1.4-1.9,2.6v4
			C42.5,47.6,43.8,48.9,45.2,48.9z M62.2,59.2h-2.8c-0.6,0-1.1-0.5-1.1-1.1c0-0.6,0.5-1.1,1.1-1.1h2.8c0.5,0,0.9,0.4,1,0.8
			c0,0,0,0,0,0c0,0.1,0,0.1,0,0.2C63.3,58.8,62.8,59.2,62.2,59.2z"/>
	</g>
</g>
</svg>
