<?xml version="1.0" encoding="utf-8"?>
<!-- Generator: Adobe Illustrator 19.2.0, SVG Export Plug-In . SVG Version: 6.00 Build 0)  -->
<svg version="1.1" xmlns="http://www.w3.org/2000/svg" xmlns:xlink="http://www.w3.org/1999/xlink" x="0px" y="0px"
	 viewBox="0 0 122 122" style="enable-background:new 0 0 122 122;" xml:space="preserve">
<style type="text/css">
	.st0{fill:none;stroke:#2F3441;stroke-width:2;stroke-miterlimit:10;}
	.st1{fill:#303440;}
</style>
<g id="Слой_2">
	<circle class="st0" cx="61" cy="61" r="60"/>
</g>
<g id="Слой_3">
</g>
<g id="Слой_4">
</g>
<g id="Слой_5">
	<g>
		<path class="st1" d="M97.2,60.6c-0.3-0.4-0.9-0.4-1.3-0.1l-1.8,1.6l-9.9-9.9c-0.4-0.4-1-0.4-1.3,0c-0.4,0.4-0.4,1,0,1.3l9.9,9.8
			l-4.9,4.4L71.6,51.3l16.1-15.3c0.4-0.4,0.4-0.9,0-1.3c-0.4-0.4-0.9-0.4-1.3,0L69.6,50.7c-0.2,0.2-0.3,0.4-0.3,0.7
			c0,0.2,0.1,0.5,0.3,0.7l1.5,1.5l-3.3,3.4l-6.4-0.7c-0.3,0-0.6,0.1-0.8,0.3l-2.6,2.6l-4.8-4.7l1.6-1.6c0.2-0.2,0.3-0.4,0.3-0.7
			c0-0.3-0.1-0.5-0.3-0.7L38,35.5c-0.4-0.4-1-0.3-1.3,0c-0.4,0.4-0.3,1,0,1.3l11.4,10.7L31.5,63.9l-2.9-2.6c-0.4-0.3-1-0.3-1.3,0.1
			c-0.3,0.4-0.3,1,0.1,1.3l8.8,7.9c0.2,0.2,0.4,0.2,0.6,0.2c0.2,0,0.5-0.1,0.7-0.3l1.6-1.6l8.7,8.6l-1.6,1.6c-0.4,0.4-0.4,1,0,1.3
			l3.3,3.3h0v0l3.3,3.2l3.3,3.3l3.3,3.3c0.2,0.2,0.4,0.3,0.7,0.3c0.2,0,0.5-0.1,0.7-0.3l1.7-1.7l1.7,1.7c0.2,0.2,0.4,0.3,0.7,0.3
			c0.2,0,0.5-0.1,0.7-0.3l2.6-2.6l0.4,0.4c0.2,0.2,0.4,0.3,0.7,0.3c0.2,0,0.5-0.1,0.7-0.3l2.6-2.6l0.4,0.4c0.2,0.2,0.4,0.3,0.7,0.3
			c0.2,0,0.5-0.1,0.7-0.3l2.6-2.6l0.4,0.4c0.2,0.2,0.4,0.3,0.7,0.3c0.2,0,0.5-0.1,0.7-0.3l3.3-3.3c0.4-0.4,0.4-1,0-1.3l-4.9-4.9
			l8.8-9.3l1.7,1.7c0.2,0.2,0.4,0.3,0.7,0.3c0.2,0,0.4-0.1,0.6-0.2l8.8-7.9C97.5,61.6,97.6,61,97.2,60.6L97.2,60.6z M50,61.1
			c0,2.3-1.8,4.1-4.1,4.1c-0.9,0-1.8-0.3-2.5-0.8l5.7-5.7C49.7,59.4,50,60.2,50,61.1L50,61.1z M50.5,57.3l1.6-1.6l0.8,0.8l-1.7,1.8
			C51,58,50.8,57.6,50.5,57.3L50.5,57.3z M36.7,68.5l-3.8-3.4l16.6-16.3l3.4,3.2L36.7,68.5z M42.1,65.7c0.3,0.3,0.7,0.5,1.1,0.7
			c-0.3,0.3-0.6,0.6-0.9,0.9c-0.4,0.4-0.7,0.8-1.1,1.1l-0.9-0.9L42.1,65.7z M49,78.8l2,1.9l-1,1l-2-2L49,78.8z M53.3,85L51.3,83l1-1
			l2,1.9L53.3,85z M55.6,85.3l2,1.9l-1,1l-2-2L55.6,85.3z M59.8,91.5l-2-2l1-1l2,1.9L59.8,91.5z M77.5,84.8l-0.4-0.4l-3.8-3.8
			c0,0,0,0,0,0l-1.1-1.1c-0.4-0.4-1-0.4-1.3,0c-0.4,0.4-0.4,1,0,1.3l4.3,4.3l-2,2l-5.3-5.3c-0.4-0.4-1-0.4-1.3,0
			c-0.4,0.4-0.4,1,0,1.3l1.1,1.1l3.1,3.1l-2,2l-4.2-4.2l0,0L63.6,84c-0.4-0.4-1-0.4-1.3,0c-0.4,0.4-0.4,1,0,1.3l2.1,2.1l2.1,2.1
			l-2,2l-22-21.7c0.4-0.4,0.7-0.7,1.1-1.1c0.6-0.6,1.1-1.1,1.6-1.6c0.2,0,0.5,0,0.7,0c3.3,0,6-2.7,6-6c0-0.2,0-0.5-0.1-0.7l2.4-2.5
			l2.5,2.5l-8.8,8.7c-0.2,0.2-0.3,0.4-0.3,0.7c0,0.3,0.1,0.5,0.4,0.7c0.2,0.2,5.3,4,14.2-5l17.3,17.3L77.5,84.8z M75.3,76L62.9,63.6
			c-0.2-0.2-0.4-0.3-0.7-0.3c-0.3,0-0.5,0.1-0.7,0.3c-5.7,6.1-9.6,6.3-11.3,5.9l11.4-11.3l4.5,0.5l-0.7,0.7c-0.4,0.4-0.3,1,0,1.3
			c0.4,0.4,1,0.3,1.3,0l5.4-5.6L84,66.8L75.3,76z M76.9,49.2c0,1.6,1.3,2.9,2.9,2.9c1.6,0,2.9-1.3,2.9-2.9c0-1.6-1.3-2.9-2.9-2.9
			C78.2,46.3,76.9,47.6,76.9,49.2L76.9,49.2z M80.9,49.2c0,0.6-0.5,1.1-1,1.1c-0.6,0-1-0.5-1-1.1s0.5-1,1-1
			C80.4,48.2,80.9,48.6,80.9,49.2L80.9,49.2z M80.9,49.2"/>
	</g>
</g>
</svg>
