<?xml version="1.0" encoding="iso-8859-1"?>
<!-- Generator: Adobe Illustrator 16.2.0, SVG Export Plug-In . SVG Version: 6.00 Build 0)  -->
<!DOCTYPE svg PUBLIC "-//W3C//DTD SVG 1.1//EN" "http://www.w3.org/Graphics/SVG/1.1/DTD/svg11.dtd">
<svg version="1.1" id="&#x421;&#x43B;&#x43E;&#x439;_1"
	 xmlns="http://www.w3.org/2000/svg" xmlns:xlink="http://www.w3.org/1999/xlink" x="0px" y="0px" width="1644.165px"
	 height="462.046px" viewBox="0 0 1644.165 462.046" style="enable-background:new 0 0 1644.165 462.046;" xml:space="preserve">
<rect x="-658.735" y="-911.821" style="fill:#F6F5F0;" width="3000" height="2496.069"/>
<rect x="-658.735" y="-913.786" style="fill:#F6F5F0;" width="3000" height="2500"/>
<g>
	<defs>
		<rect id="SVGID_1_" x="-658.735" y="-913.786" width="3000" height="2500"/>
	</defs>
	<clipPath id="SVGID_2_">
		<use xlink:href="#SVGID_1_"  style="overflow:visible;"/>
	</clipPath>
	<path style="clip-path:url(#SVGID_2_);fill:#3C4257;" d="M650.862,123.255c7.838,0,15.24,1.001,22.2,3
		c6.96,2.002,13.08,5.081,18.36,9.24c5.28,4.162,9.479,9.442,12.6,15.84c3.12,6.401,4.68,14.002,4.68,22.8
		c0,8.801-1.56,16.44-4.68,22.92s-7.32,11.88-12.6,16.2c-5.28,4.32-11.4,7.522-18.36,9.6c-6.96,2.081-14.362,3.12-22.2,3.12h-44.16
		v58.8c0,1.763-0.641,3.281-1.92,4.56c-1.283,1.282-2.801,1.92-4.56,1.92h-9.84c-1.763,0-3.281-0.638-4.56-1.92
		c-1.283-1.279-1.92-2.797-1.92-4.56v-155.04c0-1.759,0.637-3.277,1.92-4.56c1.279-1.279,2.797-1.92,4.56-1.92H650.862z
		 M606.703,204.375h42.96c11.52,0,20.437-2.479,26.76-7.44c6.319-4.957,9.479-12.559,9.479-22.8c0-10.238-3.161-17.677-9.479-22.32
		c-6.323-4.639-15.24-6.96-26.76-6.96h-42.96V204.375z"/>
	<path style="clip-path:url(#SVGID_2_);fill:#3C4257;" d="M816.462,123.255c7.838,0,15.24,0.96,22.2,2.88
		c6.959,1.92,13.08,4.882,18.36,8.88c5.28,4.001,9.48,9.12,12.6,15.36c3.12,6.24,4.681,13.762,4.681,22.56
		c0,12.96-3.24,23.28-9.722,30.96c-6.479,7.68-14.759,13.121-24.838,16.32l36.24,63.12c0.48,0.96,0.72,1.841,0.72,2.64
		c0,1.44-0.521,2.681-1.56,3.72c-1.043,1.042-2.28,1.56-3.72,1.56h-10.32c-3.202,0-5.563-0.799-7.08-2.4
		c-1.522-1.598-2.603-2.959-3.24-4.08l-34.8-61.2h-41.28v61.2c0,1.763-0.641,3.281-1.92,4.561c-1.283,1.282-2.801,1.92-4.56,1.92
		h-9.84c-1.763,0-3.281-0.638-4.56-1.92c-1.283-1.279-1.92-2.797-1.92-4.561v-155.04c0-1.759,0.637-3.278,1.92-4.56
		c1.279-1.279,2.797-1.92,4.56-1.92H816.462z M774.703,201.975h40.56c11.52,0,20.438-2.28,26.76-6.84
		c6.318-4.56,9.48-11.959,9.48-22.2c0-10.238-3.162-17.479-9.48-21.72c-6.322-4.238-15.24-6.36-26.76-6.36h-40.56V201.975z"/>
	<path style="clip-path:url(#SVGID_2_);fill:#3C4257;" d="M1025.979,269.655c1.759,0,3.277,0.641,4.56,1.92
		c1.279,1.283,1.919,2.801,1.919,4.56v8.64c0,1.763-0.64,3.281-1.919,4.56c-1.282,1.282-2.801,1.92-4.56,1.92h-96.96
		c-1.763,0-3.281-0.638-4.561-1.92c-1.282-1.279-1.919-2.797-1.919-4.56v-155.04c0-1.759,0.637-3.277,1.919-4.56
		c1.279-1.279,2.798-1.92,4.561-1.92h95.04c1.759,0,3.276,0.641,4.56,1.92c1.279,1.283,1.92,2.801,1.92,4.56v8.64
		c0,1.762-0.641,3.281-1.92,4.56c-1.283,1.282-2.801,1.92-4.56,1.92h-78.72v50.64h73.439c1.759,0,3.277,0.641,4.561,1.92
		c1.278,1.282,1.92,2.802,1.92,4.561v8.64c0,1.763-0.642,3.281-1.92,4.56c-1.283,1.283-2.802,1.92-4.561,1.92h-73.439v52.56
		H1025.979z"/>
	<path style="clip-path:url(#SVGID_2_);fill:#3C4257;" d="M1153.658,224.775l48.479-93.84c0.96-1.92,2.281-3.679,3.96-5.28
		c1.682-1.597,3.879-2.4,6.602-2.4h9.12c1.759,0,3.278,0.641,4.56,1.92c1.278,1.283,1.92,2.801,1.92,4.56v155.04
		c0,1.763-0.642,3.281-1.92,4.56c-1.281,1.282-2.801,1.92-4.56,1.92h-9.841c-1.762,0-3.281-0.638-4.56-1.92
		c-1.282-1.279-1.92-2.797-1.92-4.56v-113.76l-37.44,72.24c-1.282,2.4-2.64,4.283-4.08,5.64c-1.439,1.361-3.359,2.04-5.76,2.04
		h-9.121c-2.398,0-4.318-0.679-5.759-2.04c-1.44-1.357-2.801-3.24-4.08-5.64l-37.439-72.24v113.76c0,1.763-0.642,3.281-1.921,4.56
		c-1.282,1.282-2.801,1.92-4.56,1.92h-9.84c-1.763,0-3.281-0.638-4.561-1.92c-1.282-1.279-1.921-2.797-1.921-4.56v-155.04
		c0-1.759,0.639-3.277,1.921-4.56c1.279-1.279,2.798-1.92,4.561-1.92h9.12c2.719,0,4.92,0.803,6.6,2.4c1.68,1.601,3,3.36,3.96,5.28
		L1153.658,224.775z"/>
	<path style="clip-path:url(#SVGID_2_);fill:#3C4257;" d="M1290.455,291.255c-1.763,0-3.281-0.638-4.562-1.92
		c-1.281-1.279-1.919-2.797-1.919-4.56v-155.04c0-1.759,0.638-3.277,1.919-4.56c1.28-1.279,2.799-1.92,4.562-1.92h9.84
		c1.759,0,3.277,0.641,4.56,1.92c1.279,1.283,1.921,2.801,1.921,4.56v155.04c0,1.763-0.642,3.281-1.921,4.56
		c-1.282,1.282-2.801,1.92-4.56,1.92H1290.455z"/>
	<path style="clip-path:url(#SVGID_2_);fill:#3C4257;" d="M1465.896,269.655c1.759,0,3.277,0.641,4.56,1.92
		c1.279,1.283,1.919,2.801,1.919,4.56v8.64c0,1.763-0.64,3.281-1.919,4.56c-1.282,1.282-2.801,1.92-4.56,1.92h-96.96
		c-1.763,0-3.281-0.638-4.562-1.92c-1.281-1.279-1.919-2.797-1.919-4.56v-155.04c0-1.759,0.638-3.277,1.919-4.56
		c1.28-1.279,2.799-1.92,4.562-1.92h95.04c1.759,0,3.277,0.641,4.56,1.92c1.279,1.283,1.92,2.801,1.92,4.56v8.64
		c0,1.762-0.641,3.281-1.92,4.56c-1.282,1.282-2.801,1.92-4.56,1.92h-78.72v50.64h73.439c1.759,0,3.277,0.641,4.56,1.92
		c1.279,1.282,1.92,2.802,1.92,4.561v8.64c0,1.763-0.641,3.281-1.92,4.56c-1.282,1.283-2.801,1.92-4.56,1.92h-73.439v52.56H1465.896
		z"/>
	<path style="clip-path:url(#SVGID_2_);fill:#3C4257;" d="M1583.494,123.255c7.837,0,15.24,0.96,22.2,2.88s13.08,4.882,18.359,8.88
		c5.28,4.001,9.48,9.12,12.601,15.36c3.12,6.24,4.68,13.762,4.68,22.56c0,12.96-3.241,23.28-9.72,30.96
		c-6.48,7.68-14.761,13.121-24.84,16.32l36.238,63.12c0.481,0.96,0.722,1.841,0.722,2.64c0,1.44-0.521,2.681-1.562,3.72
		c-1.041,1.042-2.279,1.56-3.719,1.56h-10.32c-3.203,0-5.562-0.799-7.08-2.4c-1.522-1.598-2.603-2.959-3.24-4.08l-34.801-61.2
		h-41.278v61.2c0,1.763-0.642,3.281-1.921,4.561c-1.282,1.282-2.801,1.92-4.56,1.92h-9.84c-1.763,0-3.282-0.638-4.561-1.92
		c-1.282-1.279-1.92-2.797-1.92-4.561v-155.04c0-1.759,0.638-3.278,1.92-4.56c1.278-1.279,2.798-1.92,4.561-1.92H1583.494z
		 M1541.734,201.975h40.56c11.52,0,20.438-2.28,26.76-6.84c6.319-4.56,9.48-11.959,9.48-22.2c0-10.238-3.161-17.479-9.48-21.72
		c-6.322-4.238-15.24-6.36-26.76-6.36h-40.56V201.975z"/>
	<polygon style="clip-path:url(#SVGID_2_);fill:#3C4257;" points="571.732,372.923 579.212,372.923 609.792,413.624 
		639.162,372.923 646.313,372.923 646.313,449.924 638.502,449.924 638.502,386.014 610.232,424.624 608.473,424.624 
		579.542,386.014 579.542,449.924 571.732,449.924 	"/>
	<polygon style="clip-path:url(#SVGID_2_);fill:#3C4257;" points="688.662,372.923 743.552,372.923 743.552,380.184 
		696.472,380.184 696.472,407.134 740.472,407.134 740.472,414.394 696.472,414.394 696.472,442.664 744.651,442.664 
		744.651,449.924 688.662,449.924 	"/>
	<path style="clip-path:url(#SVGID_2_);fill:#3C4257;" d="M838.15,380.184h-46.2v25.189h23.98c18.37,0,28.05,7.59,28.05,21.45
		c0,15.95-11.66,23.101-30.25,23.101h-29.59v-77.001h54.01V380.184z M791.95,412.634v30.029h22.55c13.75,0,21.45-4.949,21.45-15.729
		c0-9.46-6.71-14.3-20.79-14.3H791.95z"/>
	<polygon style="clip-path:url(#SVGID_2_);fill:#3C4257;" points="881.819,372.923 936.709,372.923 936.709,380.184 
		889.629,380.184 889.629,407.134 933.629,407.134 933.629,414.394 889.629,414.394 889.629,442.664 937.81,442.664 937.81,449.924 
		881.819,449.924 	"/>
	<path style="clip-path:url(#SVGID_2_);fill:#3C4257;" d="M1029.878,380.074h-36.19v13.53c0,42.9-11,56.76-20.9,56.65
		c-1.54,0-3.08,0-3.96-0.329v-7.481c7.48,0,17.05-4.29,17.05-53.68v-15.841h51.811v77.002h-7.81V380.074z"/>
	<path style="clip-path:url(#SVGID_2_);fill:#3C4257;" d="M1087.847,402.514h21.78c20.569,0,30.689,8.47,30.689,22.88
		c0,16.17-11.77,24.53-31.68,24.53h-28.601v-77.001h7.811V402.514z M1087.847,409.774v32.89h21.229
		c14.741,0,23.211-5.609,23.211-17.27c0-10.34-8.359-15.62-22.88-15.62H1087.847z"/>
	
		<rect x="285.71" y="195.495" transform="matrix(-0.7071 0.7071 -0.7071 -0.7071 713.0929 119.6494)" style="clip-path:url(#SVGID_2_);fill:#373E57;" width="92.112" height="24.031"/>
	
		<rect x="160.251" y="231.421" transform="matrix(-0.7071 -0.7071 0.7071 -0.7071 106.2097 540.722)" style="clip-path:url(#SVGID_2_);fill:#373E57;" width="9.682" height="33.886"/>
	<path style="clip-path:url(#SVGID_2_);fill:#373E57;" d="M239.247,7.68L13.598,233.33l225.649,225.648L464.896,233.33L239.247,7.68
		z M401.114,183.439l-93.418,93.418l-45.276-45.276l93.417-93.418L401.114,183.439z M250.688,32.491l23.265,23.265l-0.058,0.058
		l49.484,49.484l0.058-0.057l23.265,23.264l-95.679,95.679l-23.265-23.265l0.092-0.091l-49.485-49.485l-0.091,0.092l-23.265-23.265
		L250.688,32.491z M52.437,231.272L148,135.708l44.333,44.333L96.77,275.605L52.437,231.272z M103.782,282.617l95.564-95.563
		l44.333,44.333l-95.564,95.563L103.782,282.617z M167.65,336.821c0,0,15.222-24.762,45.085-45.085
		c29.864-20.322,45.085-45.085,45.085-45.085l19.084,19.084c0,0-15.254,24.795-45.085,45.085
		c-29.831,20.289-45.085,45.085-45.085,45.085L167.65,336.821z M201.443,370.615c0,0,15.222-24.763,45.085-45.085
		c29.864-20.322,45.085-45.085,45.085-45.085l19.084,19.084c0,0-15.254,24.795-45.085,45.084
		c-29.832,20.289-45.085,45.085-45.085,45.085L201.443,370.615z M299.035,378.036c-29.831,20.29-45.085,45.085-45.085,45.085
		l-19.084-19.083c0,0,15.222-24.763,45.085-45.085c29.864-20.322,45.085-45.084,45.085-45.084l19.084,19.083
		C344.12,332.951,328.866,357.747,299.035,378.036 M312.822,281.983l93.418-93.418l45.276,45.277l-93.417,93.417L312.822,281.983z"
		/>
	
		<rect x="215.882" y="93.673" transform="matrix(0.7071 0.7071 -0.7071 0.7071 164.2155 -139.8091)" style="clip-path:url(#SVGID_2_);fill:#373E57;" width="69.981" height="69.296"/>
	
		<rect x="336.113" y="245.897" transform="matrix(0.7071 -0.7071 0.7071 0.7071 -70.4371 345.7751)" style="clip-path:url(#SVGID_2_);fill:#373E57;" width="92.112" height="24.031"/>
	
		<rect x="108.906" y="180.076" transform="matrix(-0.7071 -0.7071 0.7071 -0.7071 54.8647 416.7633)" style="clip-path:url(#SVGID_2_);fill:#373E57;" width="9.682" height="33.886"/>
</g>
</svg>
