<?xml version="1.0" encoding="utf-8"?>
<!-- Generator: Adobe Illustrator 19.2.0, SVG Export Plug-In . SVG Version: 6.00 Build 0)  -->
<svg version="1.1" xmlns="http://www.w3.org/2000/svg" xmlns:xlink="http://www.w3.org/1999/xlink" x="0px" y="0px"
	 viewBox="0 0 122 122" style="enable-background:new 0 0 122 122;" xml:space="preserve">
<style type="text/css">
	.st0{fill:none;stroke:#2F3441;stroke-width:2;stroke-miterlimit:10;}
	.st1{fill:#303440;}
</style>
<g id="Слой_2">
	<circle class="st0" cx="61" cy="61" r="60"/>
</g>
<g id="Слой_3">
	<g>
		<path class="st1" d="M60.9,58.6c8,0,14.6-6.5,14.6-14.6S69,29.5,60.9,29.5c-8,0-14.6,6.5-14.6,14.6S52.9,58.6,60.9,58.6L60.9,58.6
			z M60.9,31.5c6.9,0,12.6,5.6,12.6,12.6s-5.6,12.6-12.6,12.6c-6.9,0-12.6-5.6-12.6-12.6S54,31.5,60.9,31.5L60.9,31.5z M60.9,31.5"
			/>
		<path class="st1" d="M60.9,51.6c2.5,0,4.9-1.3,6.3-3.4c0.3-0.5,0.2-1.1-0.3-1.4c-0.5-0.3-1.1-0.2-1.4,0.3
			c-1.1,1.6-2.8,2.5-4.7,2.5c-1.9,0-3.6-0.9-4.7-2.5c-0.3-0.5-0.9-0.6-1.4-0.3c-0.5,0.3-0.6,0.9-0.3,1.4
			C56,50.4,58.4,51.6,60.9,51.6L60.9,51.6z M60.9,51.6"/>
		<path class="st1" d="M65.8,69.3c-1.9,0-3.6,0.8-4.9,2.1c-1.2-1.4-3-2.1-4.9-2.1c-3.6,0-6.6,2.9-6.6,6.6c0,1.4,0.5,2.8,1.3,4
			l9.3,12.3c0.2,0.3,0.5,0.4,0.8,0.4c0.3,0,0.6-0.1,0.8-0.4L71,79.8c0.9-1.1,1.3-2.5,1.3-4C72.3,72.3,69.4,69.3,65.8,69.3L65.8,69.3
			z M69.4,78.6l-8.5,11.2l-8.5-11.2c-0.6-0.8-0.9-1.7-0.9-2.7c0-2.5,2-4.5,4.5-4.5c1.6,0,3.2,0.9,4,2.3c0.2,0.3,0.5,0.5,0.9,0.5
			c0.4,0,0.7-0.2,0.9-0.5c0.8-1.4,2.3-2.3,4-2.3c2.5,0,4.5,2,4.5,4.5C70.3,76.9,70,77.8,69.4,78.6L69.4,78.6z M69.4,78.6"/>
		<path class="st1" d="M60.9,63.4c-15.5,0-28.1,12.6-28.1,28.1c0,0.6,0.5,1,1,1c0.6,0,1-0.5,1-1c0-14.4,11.7-26.1,26.1-26.1
			C75.3,65.4,87,77.1,87,91.5c0,0.6,0.5,1,1,1c0.6,0,1-0.5,1-1C89.1,76,76.4,63.4,60.9,63.4L60.9,63.4z M60.9,63.4"/>
	</g>
</g>
</svg>
