<?xml version="1.0" encoding="utf-8"?>
<!-- Generator: Adobe Illustrator 19.2.0, SVG Export Plug-In . SVG Version: 6.00 Build 0)  -->
<svg version="1.1" xmlns="http://www.w3.org/2000/svg" xmlns:xlink="http://www.w3.org/1999/xlink" x="0px" y="0px"
	 viewBox="0 0 122 122" style="enable-background:new 0 0 122 122;" xml:space="preserve">
<style type="text/css">
	.st0{fill:none;stroke:#2F3441;stroke-width:2;stroke-miterlimit:10;}
	.st1{fill:#303440;}
</style>
<g id="Слой_2">
	<circle class="st0" cx="61" cy="61" r="60"/>
</g>
<g id="Слой_3">
</g>
<g id="Слой_4">
	<path class="st1" d="M27.6,59.4c0-0.7,0.1-2.9,1.6-3.5c1.5-0.6,3.1,1,3.4,1.3c0.4,0.4,0.3,1,0,1.3c-0.4,0.4-1,0.3-1.3,0
		c-0.5-0.5-1.2-0.9-1.3-0.9c0,0-0.3,0.3-0.4,1.8c-0.1,4.2,3.2,5.4,3.2,5.4c0.5,0.2,0.8,0.7,0.6,1.2c-0.1,0.4-0.5,0.6-0.9,0.6
		c-0.1,0-0.2,0-0.3,0C30.5,66.1,27.5,63.9,27.6,59.4L27.6,59.4z M28.6,50.2h11.1c5.7,0,6,3.5,6,3.7c0,0.5,0.4,0.9,0.9,0.9h0
		c0.5,0,0.9-0.5,0.9-1c0-0.1-0.3-5.5-7.9-5.5H28.6c-0.5,0-0.9,0.4-0.9,0.9C27.6,49.8,28,50.2,28.6,50.2L28.6,50.2z M28.6,47.3h11.8
		c0.5,0,0.9-0.4,0.9-0.9c0-0.5-0.4-0.9-0.9-0.9H28.6c-0.5,0-0.9,0.4-0.9,0.9C27.6,46.9,28,47.3,28.6,47.3L28.6,47.3z M47.2,59.3
		c-0.5,0-0.9,0.4-0.9,0.9v12.5h-1.9c-0.3,0-0.5,0.1-0.7,0.3c-0.2,0.2-0.3,0.5-0.3,0.7c0,0,0.1,1.2-0.4,2.7c-1.8-0.4-4.5-1.5-4.5-2.9
		c0-0.5-0.4-0.9-0.9-0.9c-0.5,0-0.9,0.4-0.9,0.9c0,2.8,3.6,4.1,5.6,4.6c-0.2,0.3-0.4,0.5-0.6,0.8c-1.3,1.4-3.3,2.1-5.9,2.1
		c-0.5,0-0.9,0.4-0.9,0.9c0,0.5,0.4,0.9,0.9,0.9c3.2,0,5.7-0.9,7.3-2.7c1.7-1.9,2.2-4.2,2.2-5.6h1.9c0.5,0,0.9-0.4,0.9-0.9V60.2
		C48.1,59.7,47.7,59.3,47.2,59.3L47.2,59.3z M91.6,58.8c-1.5-0.6-3.1,1-3.4,1.3c-0.4,0.4-0.3,1,0,1.3c0.4,0.4,1,0.3,1.3,0
		c0.4-0.5,1.1-0.9,1.3-0.9c0,0,0.4,0.3,0.4,1.8c0.1,4.2-3.1,5.4-3.2,5.4c-0.5,0.2-0.8,0.7-0.6,1.2c0.1,0.4,0.5,0.7,0.9,0.7
		c0.1,0,0.2,0,0.3-0.1c1.6-0.5,4.6-2.7,4.5-7.2C93.2,61.6,93.2,59.4,91.6,58.8L91.6,58.8z M85.2,84.9c-3.2,0-5.7-0.9-7.3-2.7
		c-1.7-1.9-2.2-4.2-2.2-5.6h-1.9c-0.5,0-0.9-0.4-0.9-0.9v-9c0-0.5,0.4-0.9,0.9-0.9c0.5,0,0.9,0.4,0.9,0.9v8h1.9
		c0.3,0,0.5,0.1,0.7,0.3c0.2,0.2,0.3,0.5,0.2,0.7c0,0-0.1,0.9,0.2,2c1.1-0.3,2.6-1.1,2.9-3.6c0.2-1.4,1.4-2.5,2.8-2.5
		c0.1,0,0.2,0,0.3,0c1.5,0.2,2.7,1.6,2.5,3.1c-0.4,3.3-2.1,6-4.9,7.5c1.1,0.5,2.4,0.7,3.8,0.7c0.5,0,0.9,0.4,0.9,0.9
		C86.1,84.4,85.7,84.9,85.2,84.9L85.2,84.9z M79.3,80.9c0.1,0.1,0.2,0.1,0.2,0.2c2.4-1,4.5-3.1,4.8-6.5c0.1-0.5-0.3-1-0.8-1
		c0,0-0.1,0-0.1,0c-0.5,0-0.9,0.3-0.9,0.8c-0.3,2.9-2.1,4.5-4.2,5.1C78.6,80,78.9,80.4,79.3,80.9L79.3,80.9z M75.3,59.6
		c0-0.5-0.4-0.9-0.9-0.9h-3.1c-0.5,0-0.9,0.4-0.9,0.9v6.5c0,0.5,0.4,0.9,0.9,0.9c0.5,0,0.9-0.4,0.9-0.9v-5.5h2.1
		C74.9,60.6,75.3,60.1,75.3,59.6L75.3,59.6z M86.4,60.6c0.5,0,0.9-0.4,0.9-0.9c0-0.5-0.4-0.9-0.9-0.9h-9.9c-0.5,0-0.9,0.4-0.9,0.9
		c0,0.5,0.4,0.9,0.9,0.9H86.4z M85.2,44.8L85.2,44.8c-6.5,0-12.1,5.2-12.8,11.9c-0.1,0.5,0.3,1,0.8,1c0.5,0.1,1-0.3,1-0.8
		c0.6-5.7,5.4-10.2,10.9-10.2h0c5.5,0,10.3,4.5,10.9,10.2c0.1,0.5,0.5,0.8,0.9,0.8c0,0,0.1,0,0.1,0c0.5-0.1,0.9-0.5,0.8-1
		C97.3,50.1,91.7,44.8,85.2,44.8L85.2,44.8z M29.9,84.9c-0.5,0-1,0.3-1,0.9c0,0.5,0.3,1,0.9,1c0.1,0,9.9,0.9,9.9,8.4v4.3
		c0,0.5,0.4,0.9,0.9,0.9c0.5,0,0.9-0.4,0.9-0.9v-4.3C41.5,87.8,33.9,85.3,29.9,84.9L29.9,84.9z M90.5,87c-4,0.3-11.7,2.9-11.7,10.3
		v2.2c0,0.5,0.4,0.9,0.9,0.9c0.5,0,0.9-0.4,0.9-0.9v-2.2c0-7.5,9.5-8.4,9.9-8.4c0.5,0,0.9-0.5,0.9-1C91.5,87.3,91,86.9,90.5,87
		L90.5,87z M70.9,50.4c-0.7,0-1.5-0.3-2.5-0.8c-2.2,2.3-5.3,3.6-8.5,3.6c-3.2,0-6.3-1.3-8.5-3.6c-2.1,1.2-3.6,1.1-4.2,0
		c-0.4-0.6-0.6-1.7,1.5-4.6c-0.4-1.2-0.6-2.4-0.6-3.7c0-6.5,5.3-11.9,11.9-11.9c6.5,0,11.9,5.3,11.9,11.9c0,1.3-0.2,2.6-0.6,3.8
		c2,2.8,1.8,3.8,1.4,4.5C72.1,50.1,71.6,50.4,70.9,50.4L70.9,50.4z M70.8,48.5c-0.1-0.4-0.5-1.2-1.5-2.7C69,45.6,69,45.3,69.1,45
		c0.5-1.2,0.7-2.4,0.7-3.6c0-5.5-4.5-10-10-10c-5.5,0-10,4.5-10,10c0,1.2,0.2,2.4,0.6,3.5c0.1,0.3,0.1,0.6-0.1,0.9
		c-1.1,1.5-1.5,2.4-1.6,2.8c0.3,0,1-0.2,2.2-1c0.2-0.1,0.3-0.1,0.5-0.1c0.3,0,0.5,0.1,0.7,0.3c1.9,2.3,4.7,3.6,7.6,3.6
		c2.9,0,5.7-1.3,7.6-3.5c0.3-0.4,0.8-0.4,1.2-0.2C69.9,48.4,70.5,48.5,70.8,48.5L70.8,48.5z M63.7,41c0,2.1-1.7,3.9-3.9,3.9
		c-2.1,0-3.9-1.7-3.9-3.9s1.7-3.9,3.9-3.9C62,37.2,63.7,38.9,63.7,41L63.7,41z M62.3,41c0-1.4-1.1-2.4-2.4-2.4
		c-1.3,0-2.4,1.1-2.4,2.4c0,1.4,1.1,2.4,2.4,2.4C61.2,43.5,62.3,42.4,62.3,41L62.3,41z M59.8,35.7c0.4,0,0.7-0.3,0.7-0.7v-1.4
		c0-0.4-0.3-0.7-0.7-0.7c-0.4,0-0.7,0.3-0.7,0.7V35C59.1,35.4,59.4,35.7,59.8,35.7L59.8,35.7z M67.4,40.3h-1.4
		c-0.4,0-0.7,0.3-0.7,0.7c0,0.4,0.3,0.7,0.7,0.7h1.4c0.4,0,0.7-0.3,0.7-0.7C68.1,40.6,67.7,40.3,67.4,40.3L67.4,40.3z M53.8,40.4
		h-1.4c-0.4,0-0.7,0.3-0.7,0.7c0,0.4,0.3,0.7,0.7,0.7h1.4c0.4,0,0.7-0.3,0.7-0.7C54.5,40.7,54.2,40.4,53.8,40.4L53.8,40.4z
		 M65.4,35.4c-0.2-0.2-0.5-0.2-0.7,0l-1,1c-0.2,0.2-0.2,0.5,0,0.7c0.1,0.1,0.2,0.1,0.3,0.1c0.1,0,0.2,0,0.3-0.1l1-1
		C65.6,35.8,65.6,35.5,65.4,35.4L65.4,35.4z M54.8,35.5c-0.2-0.2-0.5-0.2-0.7,0c-0.2,0.2-0.2,0.5,0,0.7l1,1c0.1,0.1,0.2,0.1,0.3,0.1
		c0.1,0,0.2,0,0.3-0.1c0.2-0.2,0.2-0.5,0-0.7L54.8,35.5z M61.4,45.3c-1,0.4-2,0.4-3,0c-0.2-0.1-0.5,0-0.6,0.3
		c-0.1,0.2,0,0.5,0.3,0.6c0.6,0.2,1.2,0.3,1.8,0.3c0.6,0,1.2-0.1,1.8-0.3c0.2-0.1,0.4-0.4,0.3-0.6C61.9,45.4,61.6,45.3,61.4,45.3
		L61.4,45.3z M61.4,46.6c-1,0.4-2,0.4-3,0c-0.2-0.1-0.5,0-0.6,0.3c-0.1,0.2,0,0.5,0.3,0.6c0.6,0.2,1.2,0.3,1.8,0.3
		c0.6,0,1.2-0.1,1.8-0.3c0.2-0.1,0.4-0.4,0.3-0.6C61.9,46.7,61.6,46.5,61.4,46.6L61.4,46.6z M60.6,48.2c-0.5,0.1-0.9,0.1-1.4,0
		c-0.2-0.1-0.5,0.1-0.6,0.3c-0.1,0.2,0.1,0.5,0.3,0.6c0.3,0.1,0.7,0.1,1,0.1c0.3,0,0.7,0,1-0.1c0.2-0.1,0.4-0.3,0.3-0.6
		C61.1,48.2,60.8,48.1,60.6,48.2L60.6,48.2z M60.6,48.2"/>
</g>
</svg>
